<?xml version="1.0" encoding="UTF-8"?>
<!DOCTYPE svg PUBLIC "-//W3C//DTD SVG 1.1//EN" "http://www.w3.org/Graphics/SVG/1.1/DTD/svg11.dtd">
<!-- Creator: CorelDRAW 2020 (64 Bit) -->
<svg xmlns="http://www.w3.org/2000/svg" xml:space="preserve" width="14.0546mm" height="3.81mm" version="1.1" style="shape-rendering:geometricPrecision; text-rendering:geometricPrecision; image-rendering:optimizeQuality; fill-rule:evenodd; clip-rule:evenodd"
viewBox="0 0 1405.46 381"
 xmlns:xlink="http://www.w3.org/1999/xlink"
 xmlns:xodm="http://www.corel.com/coreldraw/odm/2003">
 <defs>
  <style type="text/css">
   <![CDATA[
    .fil0 {fill:#E50914;fill-rule:nonzero}
   ]]>
  </style>
 </defs>
 <g id="Camada_x0020_1">
  <metadata id="CorelCorpID_0Corel-Layer"/>
  <path class="fil0" d="M99.07 231.03c0,17.26 0,34.47 0,51.65 0,25.84 -9.7,36.31 -25.16,38.35 -15.46,2.04 -25.29,-6.16 -25.29,-32.5 0,-33.2 0,-66.47 0,-99.67 0,-33.2 0,-66.47 0,-99.71 0,-26.38 9.83,-36.59 25.29,-36.93 15.46,-0.35 25.16,9.28 25.16,35.16 0,12.9 0,25.8 0,38.74 15.32,-0.69 30.64,-1.42 46.1,-2.15 0,-11.48 0,-22.99 0,-34.51 0,-56.93 -24.73,-89.47 -72.66,-89.47 -47.79,0 -72.52,34.44 -72.52,94.71 0,32.65 0,65.28 0,97.89 0,32.63 0,65.24 0,97.87 0,60.27 24.7,90.55 72.52,83.45 47.89,-7.11 72.66,-42.63 72.66,-99.55 0,-15.72 0,-31.47 0,-47.22 -15.46,1.31 -30.78,2.62 -46.1,3.89zm75.76 124.71c43,-5.05 86.01,-9.94 129.02,-14.18 0,-16.06 0,-32.16 0,-48.25 -26.84,2.19 -53.55,4.66 -80.25,7.28 0,-49.42 0,-98.87 0,-148.28 0,-49.41 0,-98.9 0,-148.35 -16.31,0.04 -32.61,0.08 -48.77,0.08 0,58.65 0,117.27 0,175.85 0,58.61 0,117.23 0,175.85zm194.94 -275.6c0,-23.72 9.7,-32.81 25.3,-32.97 15.46,-0.15 25.16,8.63 25.16,32.08 0,29.54 0,59.08 0,88.58 0,29.5 0,59.08 0,88.58 0,23.42 -9.7,32.97 -25.16,33.97 -15.6,1 -25.3,-7.4 -25.3,-31.08 0,-29.85 0,-59.73 0,-89.58 0,-29.81 0,-59.74 0,-89.58zm-48.77 179.12c0,53.76 26.14,81.85 74.07,78.22 47.77,-3.61 73.93,-34.62 73.93,-86.65 0,-28.16 0,-56.35 0,-84.5 0,-28.19 0,-56.35 0,-84.53 0,-52.08 -26.15,-81.81 -73.93,-81.81 -47.93,0 -74.07,30.74 -74.07,84.54 0,29.15 0,58.27 0,87.38 0,29.12 0,58.24 0,87.35zm283.48 64.09c16.73,-0.31 33.45,-0.46 50.18,-0.66 0,-53.15 0,-106.33 0,-159.48 0,-53.15 0,-106.37 0,-159.56 -14.48,0 -28.96,0 -43.43,0.04 0,31.89 0,63.78 0,95.63 0,31.85 0,63.74 0,95.59 -8.43,-31.74 -16.87,-63.52 -25.16,-95.36 -8.29,-31.85 -16.58,-63.85 -24.88,-95.86 -20.37,0 -40.75,0 -61.14,0.04 0,53.92 0,107.87 0,161.75 0,53.92 0,107.84 0,161.76 14.62,-0.81 29.24,-1.47 43.86,-1.93 0,-38.82 0,-77.64 0,-116.46 0,-38.82 0,-77.6 0,-116.46 9.97,38.7 20.23,77.34 30.21,115.84 9.98,38.48 20.24,76.8 30.36,115.12zm133.81 -274.1c27.96,0.04 56.07,0.16 84.18,0.27 0,-15.25 0,-30.54 0,-45.83 -44.27,0 -88.54,-0.04 -132.82,-0.04 0,53.15 0,106.3 0,159.41 0,53.1 0,106.25 0,159.36 44.28,0.23 88.55,0.73 132.82,2.08 0,-15.25 0,-30.54 0,-45.83 -28.11,-0.77 -56.22,-1.27 -84.18,-1.5 0,-15.6 0,-31.16 0,-46.72 0,-15.56 0,-31.11 0,-46.71 22.2,0.11 44.55,0.27 66.89,0.69 0,-15.25 0,-30.5 0,-45.79 -22.34,-0.31 -44.69,-0.42 -66.89,-0.5 0,-14.79 0,-29.66 0,-44.45 0,-14.74 0,-29.61 0,-44.44zm163.03 0.77c26.7,0.23 53.41,0.42 80.11,0.73 0,-15.63 0,-31.31 0,-46.98 -43.01,-0.04 -86.01,-0.04 -128.88,-0.08 0,53.65 0,107.3 0,160.9 0,53.62 0,107.27 0,160.91 16.17,0.5 32.47,1.39 48.77,2.28 0,-22.26 0,-44.6 0,-66.9 0,-22.26 0,-44.6 0,-66.9 20.94,0.66 41.88,1.31 62.97,2.08 0,-15.56 0,-31.15 0,-46.75 -21.09,-0.62 -42.03,-1.12 -62.97,-1.62 0,-16.25 0,-32.54 0,-48.79 0,-16.3 0,-32.55 0,-48.88zm103.58 284.27c43.01,3.26 86.02,7.27 129.03,11.36 0,-16.26 0,-32.55 0,-48.84 -26.85,-2.2 -53.55,-4.35 -80.26,-6.47 0,-47.72 0,-95.47 0,-143.23 0,-47.72 0,-95.51 0,-143.27 -16.3,-0.04 -32.6,-0.04 -48.77,-0.04 0,55.08 0,110.19 0,165.26 0,55.08 0,110.15 0,165.23zm150.25 13.71c16.16,1.84 32.47,3.65 48.77,5.42 0,-58.19 0,-116.46 0,-174.69 0,-58.19 0,-116.46 0,-174.73 -16.3,0 -32.61,-0.04 -48.77,-0.04 0,57.34 0,114.69 0,172.04 0,57.3 0,114.69 0,172zm201.55 -343.77c-6.33,22.64 -12.77,45.23 -18.98,67.63 -6.16,22.26 -12.51,44.44 -18.69,66.51 -6.19,-22.65 -12.5,-45.18 -18.55,-67.55 -6.04,-22.3 -12.23,-44.56 -18.27,-66.7 -16.87,0 -33.73,-0.04 -50.46,-0.08 8.43,28.69 17.03,57.53 25.44,86.53 8.45,29.15 17,58.51 25.58,88.05 -9.14,30.11 -18.39,60.01 -27.41,89.73 -8.97,29.55 -18.13,58.85 -27.12,87.96 15.18,1.97 30.35,3.93 45.53,5.9 6.61,-22.8 13.51,-45.72 20.1,-68.75 6.61,-23.1 13.49,-46.41 20.24,-69.74 6.6,24.64 13.23,49.36 19.82,74.21 6.62,24.98 13.35,50.14 20.1,75.4 17.14,2.51 34.29,5.01 51.44,7.52 -9.14,-33.51 -18.39,-66.8 -27.41,-99.83 -8.96,-32.78 -18.13,-65.4 -27.13,-97.75 8.44,-29.3 16.9,-58.83 25.3,-88.53 8.46,-29.91 17.01,-60.09 25.58,-90.43 -15.04,0 -30.08,-0.04 -45.11,-0.08z"/>
 </g>
</svg>
